<?xml version="1.0" standalone="no"?><!DOCTYPE svg PUBLIC "-//W3C//DTD SVG 1.1//EN" "http://www.w3.org/Graphics/SVG/1.1/DTD/svg11.dtd"><svg t="1546925362090" class="icon" style="" viewBox="0 0 1024 1024" version="1.1" xmlns="http://www.w3.org/2000/svg" p-id="4822" xmlns:xlink="http://www.w3.org/1999/xlink" width="180" height="180"><defs><style type="text/css">html, * { user-select: text !important; }
@font-face { font-family: rbicon; src: url("chrome-extension://dipiagiiohfljcicegpgffpbnjmgjcnf/fonts/rbicon.woff2") format("woff2"); font-weight: normal; font-style: normal; }
</style></defs><path d="M474.112 188.416h38.4V880.64h-38.4V188.416z" fill="" p-id="4823"></path><path d="M143.36 519.168h692.224v38.4H143.36zM404.992 188.416l84.48-84.992 92.672 84.992zM836.096 450.048l92.16 84.48-92.16 84.48z" fill="" p-id="4824"></path><path d="M620.544 695.808c-53.76 0-99.84-53.76-146.432-169.472-61.44-130.56-99.84-146.432-107.52-146.432-61.44 7.68-115.2 184.832-138.24 315.392l-38.4-7.68c7.68-53.76 61.44-330.752 169.472-346.112 53.76-7.68 99.84 46.08 146.432 161.792 38.4 92.16 76.8 146.432 115.2 146.432 69.12-7.68 130.56-177.152 161.792-284.672l38.4 7.68c-8.192 38.4-85.504 315.392-200.704 323.072z" fill="" p-id="4825"></path></svg>